IKResults
version=1
nRows=16
nColumns=40
inDegrees=yes

Units are S.I. units (second, meters, Newtons, ...)
Angles are in degrees.

endheader
time	pelvis_tilt	pelvis_list	pelvis_rotation	pelvis_tx	pelvis_ty	pelvis_tz	hip_flexion_r	hip_adduction_r	hip_rotation_r	knee_angle_r	knee_angle_r_beta	ankle_angle_r	subtalar_angle_r	mtp_angle_r	hip_flexion_l	hip_adduction_l	hip_rotation_l	knee_angle_l	knee_angle_l_beta	ankle_angle_l	subtalar_angle_l	mtp_angle_l	lumbar_extension	lumbar_bending	lumbar_rotation	arm_flex_r	arm_add_r	arm_rot_r	elbow_flex_r	pro_sup_r	wrist_flex_r	wrist_dev_r	arm_flex_l	arm_add_l	arm_rot_l	elbow_flex_l	pro_sup_l	wrist_flex_l	wrist_dev_l
      0.81000000	     15.49387091	      0.53760804	      4.09854220	     -0.73132472	      0.95579662	      1.06543208	    -16.25475146	      2.45497349	    -12.61872899	    -11.24956038	     -0.19634187	      9.29713370	      1.27315125	     -6.91080682	     -3.19089628	      0.31015185	     -1.74151810	    -37.57996396	     -0.65589410	     13.64192033	     17.68785330	      9.14950928	    -23.22821844	      0.30401666	     -2.96710077	      0.50398481	    -12.45299880	      2.78004837	     38.23438175	     89.95437384	      0.00000000	      0.00000000	      5.43365616	      7.88520412	     12.07291789	     19.98432703	     89.95437384	      0.00000000	      0.00000000
      0.82000000	     15.49717823	      0.74088002	      3.94129722	     -0.72694073	      0.95587662	      1.06589019	    -16.60459579	      2.26641707	    -12.46559236	    -11.20536073	     -0.19557044	      9.54730562	      1.04414373	     -6.72825111	     -2.80765103	      0.14225190	     -1.36085015	    -35.84931989	     -0.62568867	     13.42776174	     17.48335776	      8.82182868	    -23.36480078	     -0.03914831	     -2.79307468	      0.64468043	    -12.52973731	      3.20252849	     38.48820741	     89.95437384	      0.00000000	      0.00000000	      5.04652088	      8.03913735	     12.34731252	     19.58961178	     89.95437384	      0.00000000	      0.00000000
      0.83000000	     15.40665886	      0.86166259	      3.83844410	     -0.72253223	      0.95568627	      1.06625659	    -16.84568569	      2.16321877	    -12.38316848	    -11.15098608	     -0.19462142	      9.73435731	      1.01610083	     -6.49394759	     -2.28898888	      0.09731390	     -0.89152303	    -34.16698299	     -0.59632635	     13.15535160	     17.18113081	      8.28546850	    -23.39149255	     -0.27035414	     -2.56082532	      0.67041583	    -12.61720976	      3.45977548	     38.84235367	     89.95437384	      0.00000000	      0.00000000	      4.73894995	      8.13241686	     12.72966949	     19.12671492	     89.95437384	      0.00000000	      0.00000000
      0.84000000	     15.46102645	      0.96764956	      3.58545008	     -0.71793403	      0.95570964	      1.06688944	    -17.35955845	      2.11644170	    -11.75922081	    -10.86557366	     -0.18964004	      9.67445552	      0.15360539	     -6.66627499	     -1.99098506	      0.10796137	     -0.09207401	    -32.48145743	     -0.56690838	     12.75664945	     16.80193258	      8.02227442	    -23.55038243	     -0.54676380	     -2.21068822	      0.71794429	    -12.73345455	      3.85661930	     39.14515495	     89.95437384	      0.00000000	      0.00000000	      4.36913239	      8.28072034	     12.80199227	     18.77222030	     89.95437384	      0.00000000	      0.00000000
      0.85000000	     15.38287994	      1.06282391	      3.46327372	     -0.71329963	      0.95538355	      1.06714779	    -17.59137638	      1.99507357	    -11.79818904	    -10.89299178	     -0.19011857	     10.04354719	      0.41143002	     -6.54318578	     -1.56923838	      0.07321666	      0.50089828	    -30.77606745	     -0.53714371	     12.25419785	     16.31791429	      7.59380619	    -23.56077606	     -0.75110263	     -1.96256865	      0.69696096	    -12.84493212	      4.15991882	     39.47403875	     89.95437384	      0.00000000	      0.00000000	      4.02443227	      8.34654186	     13.23925094	     18.39263854	     89.95437384	      0.00000000	      0.00000000
      0.86000000	     15.20859949	      1.08021604	      3.36331522	     -0.70872422	      0.95483412	      1.06753102	    -17.67309289	      1.98028133	    -11.64181232	    -10.97294915	     -0.19151409	     10.26824988	      0.32587089	     -6.47750457	     -0.98027689	      0.19340953	      1.39248056	    -29.17039522	     -0.50911944	     11.82534146	     15.57736007	      7.36438933	    -23.45158492	     -0.89281678	     -1.73013008	      0.72308811	    -12.91409236	      4.49992136	     39.69880867	     89.95437384	      0.00000000	      0.00000000	      3.65680965	      8.47660486	     13.30006311	     18.02637253	     89.95437384	      0.00000000	      0.00000000
      0.87000000	     15.35835259	      1.28691985	      3.11591525	     -0.70346285	      0.95471533	      1.06780003	    -18.23590227	      1.73360839	    -11.35494817	    -10.92404566	     -0.19066056	     10.49526491	      0.25673499	     -6.45210010	     -0.97998186	      0.08773481	      2.42369781	    -27.29003717	     -0.47630100	     11.22609052	     14.64856704	      6.99866171	    -23.60114136	     -1.24051949	     -1.45495350	      0.66048717	    -13.04100793	      4.89293726	     39.95062018	     89.95437384	      0.00000000	      0.00000000	      3.18418970	      8.57061539	     13.56946667	     17.79576266	     89.95437384	      0.00000000	      0.00000000
      0.88000000	     14.98413389	      1.19261053	      3.35484127	     -0.69908060	      0.95359772	      1.06765788	    -18.02806728	      1.89400225	    -11.67853291	    -11.12486501	     -0.19416552	     10.77443391	      0.08462529	     -6.33162359	      0.13976321	      0.30269315	      3.20742474	    -26.39274771	     -0.46064035	     11.14790271	     14.02761989	      6.82155635	    -23.30548117	     -1.14767332	     -1.51651163	      0.68407576	    -13.02141873	      4.95316425	     40.07109618	     89.95437384	      0.00000000	      0.00000000	      2.72351303	      8.71349280	     13.49492003	     17.69287857	     89.95437384	      0.00000000	      0.00000000
      0.89000000	     15.56332802	      1.61652080	      2.67948136	     -0.69305564	      0.95414746	      1.06822150	    -19.17359571	      1.30558840	    -11.10704022	    -10.92240280	     -0.19063189	     10.88981678	      0.16810323	     -6.35955594	     -0.78768413	     -0.00215716	      4.99432183	    -23.93612555	     -0.41776420	     10.01208217	     12.07916381	      6.02873388	    -23.86557068	     -1.83606958	     -0.94752479	      0.52167852	    -13.17844244	      5.37028442	     40.42440565	     89.95437384	      0.00000000	      0.00000000	      2.15790538	      8.76661738	     13.87707619	     17.67829184	     89.95437384	      0.00000000	      0.00000000
      0.90000000	     15.20346852	      1.49036361	      2.98634315	     -0.68822282	      0.95285518	      1.06785666	    -19.02795456	      1.51959288	    -11.40057245	    -11.13200797	     -0.19429019	     11.19094216	      0.01666651	     -6.25868887	      0.27684314	      0.18289322	      5.84270778	    -23.06039122	     -0.40247975	     10.01596931	     11.60279381	      5.85521336	    -23.50708787	     -1.67395245	     -1.06873987	      0.48929936	    -13.16133632	      5.40100716	     40.47523114	     89.95437384	      0.00000000	      0.00000000	      1.67484649	      8.88209331	     13.78564624	     17.52322306	     89.95437384	      0.00000000	      0.00000000
      0.91000000	     15.77118923	      1.67602118	      2.25775896	     -0.68178938	      0.95308703	      1.06855285	    -20.22781943	      1.18927945	    -10.47913652	    -10.79681652	     -0.18844000	     11.18684745	     -0.38283368	     -6.71916335	     -0.48999546	      0.34227349	      8.84958649	    -20.94517055	     -0.36556219	      8.20825432	      8.67816132	     -5.09659237	    -23.96263713	     -2.14780011	     -0.32839515	      0.21819942	    -13.29576703	      5.59473833	     40.73869748	     89.95437384	      0.00000000	      0.00000000	      1.08676806	      8.92429946	     13.90701411	     17.52729426	     89.95437384	      0.00000000	      0.00000000
      0.92000000	     15.82872241	      1.85225147	      2.07687790	     -0.67617288	      0.95243274	      1.06842080	    -20.59425888	      0.89713423	    -10.60513484	    -10.97362083	     -0.19152581	     11.53659167	     -0.04001065	     -6.70249707	     -0.31976655	      0.26935091	     10.62904978	    -19.61045417	     -0.34226699	      7.52244353	      6.20561900	     -5.63492880	    -23.98752529	     -2.42955017	     -0.14042449	      0.07987887	    -13.31807488	      5.65541336	     40.83366005	     89.95437384	      0.00000000	      0.00000000	      0.57724027	      8.96290281	     14.16795534	     17.52915170	     89.95437384	      0.00000000	      0.00000000
      0.93000000	     15.91865846	      2.02752707	      1.88087832	     -0.67043679	      0.95173972	      1.06822378	    -20.99386867	      0.60787081	    -10.57432894	    -11.16448821	     -0.19485708	     11.83936732	      0.10397452	     -6.69348870	     -0.18199634	      0.17682036	     12.36901661	    -18.42143100	     -0.32151462	      6.87379841	      3.59778571	     -6.34233176	    -24.03139330	     -2.71186763	      0.06104094	     -0.05428140	    -13.30788016	      5.65521546	     40.84038187	     89.95437384	      0.00000000	      0.00000000	      0.04472975	      9.01698708	     14.27604083	     17.50730863	     89.95437384	      0.00000000	      0.00000000
      0.94000000	     15.99122612	      2.33307576	      1.65537960	     -0.66480721	      0.95108565	      1.06792761	    -21.32094710	      0.14987620	    -10.55840619	    -11.43706853	     -0.19961450	     12.07971801	      0.17867893	     -6.69586245	     -0.07329497	     -0.11919269	     13.77539640	    -17.26365627	     -0.30130764	      6.12740451	      1.21369775	     -6.84182690	    -24.09105830	     -3.14071517	      0.21441072	     -0.16633085	    -13.27675995	      5.58616091	     40.79743188	     89.95437384	      0.00000000	      0.00000000	     -0.41900301	      9.03837596	     14.61834028	     17.47026447	     89.95437384	      0.00000000	      0.00000000
      0.95000000	     16.05203032	      2.46721487	      1.40304448	     -0.65899035	      0.95028650	      1.06771514	    -21.61729386	     -0.12932843	    -10.43029548	    -11.74557834	     -0.20499901	     12.40952501	      0.28937464	     -6.78645924	      0.16110412	     -0.09439462	     15.89875097	    -16.47321653	     -0.28751187	      5.40362642	     -2.28357398	     -7.75775178	    -24.10135536	     -3.39730428	      0.45026105	     -0.28550899	    -13.24955458	      5.52448905	     40.70028001	     89.95437384	      0.00000000	      0.00000000	     -0.85184781	      9.01110658	     15.07631435	     17.37893623	     89.95437384	      0.00000000	      0.00000000
      0.96000000	     15.91157057	      2.74778796	      1.43966398	     -0.65353166	      0.94929334	      1.06698452	    -21.64912250	     -0.45834422	    -10.44722065	    -12.16206566	     -0.21226809	     12.76884349	     -0.14936492	     -6.77259831	      0.46717221	     -0.53643470	     16.42960117	    -15.33361201	     -0.26762202	      5.02826452	     -3.55800287	     -7.97983672	    -23.97201888	     -3.71050082	      0.36815545	     -0.33569481	    -13.14566672	      5.38853380	     40.45749497	     89.95437384	      0.00000000	      0.00000000	     -1.27735406	      9.06104248	     15.19460490	     17.30726119	     89.95437384	      0.00000000	      0.00000000
